<?xml version="1.0" encoding="UTF-8"?><svg id="logo" xmlns="http://www.w3.org/2000/svg" width="393" height="392" viewBox="0 0 393 392"><defs><style>.cls-1{fill:#1784ff;}</style></defs><path class="cls-1" d="M285.98,388H105.02c-55.7,0-101.02-45.32-101.02-101.02V111.02C4,55.32,49.32,10,105.02,10h180.97c55.7,0,101.02,45.32,101.02,101.02v175.97c0,55.7-45.32,101.02-101.02,101.02ZM105.02,32c-43.57,0-79.02,35.45-79.02,79.02v175.97c0,43.57,35.45,79.02,79.02,79.02h180.97c43.57,0,79.02-35.45,79.02-79.02V111.02c0-43.57-35.45-79.02-79.02-79.02H105.02Z"/><path class="cls-1" d="M195,296c-53.49,0-97-43.51-97-97s43.51-97,97-97,97,43.51,97,97-43.51,97-97,97Zm0-163c-36.39,0-66,29.61-66,66s29.61,66,66,66,66-29.61,66-66-29.61-66-66-66Z"/><g><circle class="cls-1" cx="301.25" cy="88.25" r="31.75"/><path class="cls-1" d="M301.25,120.5c-17.78,0-32.25-14.47-32.25-32.25s14.47-32.25,32.25-32.25,32.25,14.47,32.25,32.25-14.47,32.25-32.25,32.25Zm0-63.5c-17.23,0-31.25,14.02-31.25,31.25s14.02,31.25,31.25,31.25,31.25-14.02,31.25-31.25-14.02-31.25-31.25-31.25Z"/></g></svg>